<svg width="67" height="69" viewBox="0 0 67 69" fill="none" xmlns="http://www.w3.org/2000/svg">
<path opacity="0.8" d="M33.5 69C52.0015 69 67 54.3127 67 36.195C67 18.0772 52.0015 3.38989 33.5 3.38989C14.9985 3.38989 0 18.0772 0 36.195C0 54.3127 14.9985 69 33.5 69Z" fill="url(#paint0_radial_71_75)"/>
<path d="M24.4869 45.6772C37.3675 45.6772 47.8093 35.452 47.8093 22.8386C47.8093 10.2252 37.3675 0 24.4869 0C11.6063 0 1.16455 10.2252 1.16455 22.8386C1.16455 35.452 11.6063 45.6772 24.4869 45.6772Z" fill="black"/>
<path d="M31.7293 14.2C30.8359 14.2 30.134 14.9029 30.134 15.7777C30.134 16.6525 30.8519 17.3555 31.7293 17.3555C32.6226 17.3555 33.3405 16.6525 33.3405 15.7777C33.3245 14.9029 32.6067 14.2 31.7293 14.2Z" fill="white"/>
<path d="M24.5985 16.2151C20.8816 16.2151 17.8666 19.1675 17.8666 22.8073C17.8666 26.4471 20.8816 29.3996 24.5985 29.3996C28.3154 29.3996 31.3304 26.4471 31.3304 22.8073C31.3304 19.1675 28.3154 16.2151 24.5985 16.2151ZM24.5985 27.0408C22.2216 27.0408 20.2913 25.1506 20.2913 22.823C20.2913 20.4954 22.2216 18.6052 24.5985 18.6052C26.9754 18.6052 28.9056 20.4954 28.9056 22.823C28.9056 25.1506 26.9754 27.0408 24.5985 27.0408Z" fill="white"/>
<path d="M29.9426 36.1949H19.0311C14.5007 36.1949 10.8157 32.5863 10.8157 28.1498V17.4647C10.8157 13.0282 14.5007 9.41968 19.0311 9.41968H29.9426C34.4731 9.41968 38.1581 13.0282 38.1581 17.4647V28.1498C38.1581 32.5863 34.4731 36.1949 29.9426 36.1949ZM19.0152 11.9347C15.9045 11.9347 13.3681 14.4185 13.3681 17.4647V28.1498C13.3681 31.196 15.9045 33.6798 19.0152 33.6798H29.9266C33.0373 33.6798 35.5738 31.196 35.5738 28.1498V17.4647C35.5738 14.4185 33.0373 11.9347 29.9266 11.9347H19.0152Z" fill="white"/>
<defs>
<radialGradient id="paint0_radial_71_75" cx="0" cy="0" r="1" gradientUnits="userSpaceOnUse" gradientTransform="translate(33.5 36.19) scale(33.5 32.8051)">
<stop stop-color="#000056"/>
<stop offset="0.2482" stop-color="#4C4C88" stop-opacity="0.7518"/>
<stop offset="0.5193" stop-color="#9898BB" stop-opacity="0.4807"/>
<stop offset="0.744" stop-color="#D0D0E0" stop-opacity="0.256"/>
<stop offset="0.9103" stop-color="#F2F2F6" stop-opacity="0.0897"/>
<stop offset="1" stop-color="white" stop-opacity="0"/>
</radialGradient>
</defs>
</svg>
