<svg width="55" height="79" viewBox="0 0 55 79" fill="none" xmlns="http://www.w3.org/2000/svg">
<path d="M27.4964 32.7667C36.4669 32.7667 43.7371 25.4319 43.7371 16.3848C43.7371 7.33474 36.4669 0 27.4964 0C18.529 0 11.2588 7.33474 11.2588 16.3818C11.2588 25.4319 18.529 32.7667 27.4964 32.7667Z" fill="#272A45"/>
<path d="M10.8918 56.8963C10.8918 53.2786 14.2326 53.1008 14.2326 53.1008V79H40.7644C40.7674 72.7204 40.7674 53.1008 40.7674 53.1008C40.7674 53.1008 44.1082 53.354 44.1082 56.8963C44.1082 59.6999 44.1082 73.9323 44.1082 79H55V54.4724C55 43.7733 44.7207 35.1 34.1158 35.1L28.1903 42.4076L34.1188 70.0705L27.5 76.8927L20.8812 70.0705L26.8097 42.4076L20.8812 35.1C10.2763 35.1031 0 43.7763 0 54.4724V79H10.8918C10.8918 73.9443 10.8918 59.7602 10.8918 56.8963Z" fill="#272A45"/>
</svg>
