<svg width="64" height="67" viewBox="0 0 64 67" fill="none" xmlns="http://www.w3.org/2000/svg">
<path opacity="0.8" d="M32 66.9999C49.6731 66.9999 64 52.7383 64 35.1457C64 17.5531 49.6731 3.2915 32 3.2915C14.3269 3.2915 0 17.5531 0 35.1457C0 52.7383 14.3269 66.9999 32 66.9999Z" fill="url(#paint0_radial_71_83)"/>
<path d="M22.7809 44.3532C35.0848 44.3532 45.059 34.4244 45.059 22.1766C45.059 9.9288 35.0848 0 22.7809 0C10.4771 0 0.502808 9.9288 0.502808 22.1766C0.502808 34.4244 10.4771 44.3532 22.7809 44.3532Z" fill="black"/>
<path d="M35.0933 14.5771C34.3162 14.926 33.4628 15.1383 32.64 15.2748C33.0362 15.2142 33.6152 14.5012 33.8438 14.213C34.1943 13.7731 34.499 13.2726 34.6667 12.7265C34.6819 12.681 34.6971 12.6355 34.6667 12.6051C34.6209 12.59 34.5752 12.59 34.5295 12.6203C33.6 13.1209 32.64 13.4698 31.619 13.7276C31.5276 13.7428 31.4667 13.7276 31.4209 13.6821C31.3295 13.5911 31.2533 13.5001 31.1619 13.4243C30.7352 13.0602 30.2781 12.772 29.7448 12.5596C29.059 12.2866 28.3124 12.1653 27.5809 12.2108C26.8648 12.2563 26.1638 12.4535 25.5238 12.7872C24.8838 13.1209 24.32 13.5759 23.8628 14.1372C23.3905 14.7136 23.0552 15.3962 22.8724 16.1091C22.7048 16.8069 22.72 17.4895 22.8267 18.1872C22.8419 18.3086 22.8267 18.3237 22.72 18.3086C18.7124 17.717 15.4057 16.2911 12.7086 13.2422C12.6019 13.0905 12.5257 13.0905 12.4343 13.2422C11.2609 15.0018 11.8248 17.8232 13.3028 19.2187C13.5009 19.4007 13.699 19.5827 13.9124 19.7648C13.8362 19.7799 12.8609 19.6737 11.9771 19.2187C11.8552 19.1428 11.7943 19.1884 11.7943 19.3249C11.779 19.5221 11.7943 19.6889 11.8248 19.9013C12.0533 21.676 13.2876 23.3294 14.9943 23.9817C15.1924 24.0727 15.4209 24.1333 15.6343 24.1788C15.2533 24.2699 14.8419 24.3305 13.7448 24.2395C13.6076 24.2092 13.5467 24.285 13.6076 24.4064C14.4457 26.6665 16.2438 27.3339 17.5848 27.7283C17.7676 27.7586 17.9505 27.7586 18.1333 27.8042C18.1181 27.8193 18.1181 27.8193 18.1028 27.8345C17.6609 28.5171 16.1067 29.0176 15.3905 29.2755C14.08 29.7306 12.6476 29.9429 11.2609 29.8064C11.0324 29.7761 10.9867 29.7761 10.9257 29.8064C10.8648 29.8368 10.9105 29.8974 10.9867 29.9581C11.2609 30.1401 11.5505 30.307 11.84 30.4587C12.7238 30.9289 13.6381 31.2929 14.5981 31.5508C19.5657 32.916 25.1428 31.9149 28.8762 28.2289C31.8019 25.3317 32.8228 21.3423 32.8228 17.3529C32.8228 17.2013 33.0057 17.1102 33.1124 17.0344C33.8743 16.458 34.4838 15.7906 35.0476 15.017C35.1695 14.8501 35.1695 14.6984 35.1695 14.6377C35.1695 14.6226 35.1695 14.6226 35.1695 14.6226C35.1848 14.5164 35.1848 14.5316 35.0933 14.5771Z" fill="white"/>
<defs>
<radialGradient id="paint0_radial_71_83" cx="0" cy="0" r="1" gradientUnits="userSpaceOnUse" gradientTransform="translate(32 35.1409) scale(32 31.8542)">
<stop stop-color="#000056"/>
<stop offset="0.2482" stop-color="#4C4C88" stop-opacity="0.7518"/>
<stop offset="0.5193" stop-color="#9898BB" stop-opacity="0.4807"/>
<stop offset="0.744" stop-color="#D0D0E0" stop-opacity="0.256"/>
<stop offset="0.9103" stop-color="#F2F2F6" stop-opacity="0.0897"/>
<stop offset="1" stop-color="white" stop-opacity="0"/>
</radialGradient>
</defs>
</svg>
