<svg width="342" height="252" viewBox="0 0 342 252" fill="none" xmlns="http://www.w3.org/2000/svg">
<g opacity="0.12" clip-path="url(#clip0_71_113)">
<path d="M211.746 112.077C211.75 112.074 211.752 112.074 211.757 112.077C211.704 112.1 211.697 112.102 211.746 112.077Z" fill="#323657"/>
<path opacity="0.18" d="M215.783 99.9225H193.338V103.517H215.783V99.9225Z" fill="url(#paint0_linear_71_113)"/>
<path opacity="0.18" d="M219.373 92.4129H192.188V96.0071H219.373V92.4129Z" fill="url(#paint1_linear_71_113)"/>
<path d="M174.922 200.04C233.634 200.04 281.23 197.878 281.23 195.212C281.23 192.545 233.634 190.383 174.922 190.383C116.21 190.383 68.615 192.545 68.615 195.212C68.615 197.878 116.21 200.04 174.922 200.04Z" fill="#51578F"/>
<path d="M294.734 11.8128V135.434H52.3389V11.8128C52.3389 5.28707 57.5897 0 64.0658 0H283.009C289.486 0 294.734 5.28707 294.734 11.8128Z" fill="url(#paint2_linear_71_113)"/>
<path d="M189.698 6.88909H157.454C157.256 6.88909 157.095 6.72733 157.095 6.5279V4.46714C157.095 4.26772 157.256 4.10596 157.454 4.10596H189.698C189.896 4.10596 190.057 4.26772 190.057 4.46714V6.5279C190.057 6.72955 189.896 6.88909 189.698 6.88909Z" fill="url(#paint3_linear_71_113)"/>
<path d="M294.774 73.8151H52.3789V135.432H294.774V73.8151Z" fill="url(#paint4_linear_71_113)"/>
<path d="M286.518 13.4792V120.588C286.518 122.057 285.337 123.249 283.876 123.249H63.1968C62.6447 123.249 62.1321 123.078 61.7076 122.786C61.0147 122.305 60.5571 121.501 60.5571 120.588V13.4792C60.5571 12.01 61.7384 10.8179 63.1946 10.8179H283.874C284.793 10.8179 285.605 11.2877 286.076 12.0078C286.36 12.4288 286.518 12.9341 286.518 13.4792Z" fill="url(#paint5_linear_71_113)"/>
<path d="M58.4409 149.525C58.7533 149.819 59.0767 150.101 59.4066 150.376C59.0745 150.105 58.7533 149.819 58.4409 149.525Z" fill="white"/>
<path d="M294.772 135.432C294.772 138.669 293.984 141.723 292.585 144.4C291.681 146.137 290.524 147.714 289.158 149.088C287.101 151.165 284.574 152.769 281.752 153.731C279.82 154.386 277.75 154.743 275.601 154.743H71.5498C67.8608 154.743 64.416 153.695 61.4947 151.878C60.7622 151.424 60.0648 150.921 59.4071 150.376C59.075 150.101 58.7516 149.82 58.4414 149.525C58.2852 149.376 58.1335 149.226 57.9817 149.073C56.6222 147.703 55.4696 146.13 54.5699 144.4C53.1664 141.723 52.3811 138.669 52.3811 135.432H294.772Z" fill="url(#paint6_linear_71_113)"/>
<path d="M191.687 144.12V144.69C191.687 145.926 190.684 146.934 189.458 146.934H157.623C156.398 146.934 155.395 145.924 155.395 144.69V144.12C155.395 142.886 156.398 141.876 157.623 141.876H189.458C190.684 141.876 191.687 142.884 191.687 144.12Z" fill="url(#paint7_linear_71_113)"/>
<path d="M209.41 154.745H137.742V184.863H209.41V154.745Z" fill="url(#paint8_linear_71_113)"/>
<path d="M209.41 154.745H137.742V165.78H209.41V154.745Z" fill="url(#paint9_linear_71_113)"/>
<path d="M235.202 195.212H111.95V185.839C111.95 185.3 112.383 184.864 112.918 184.864H234.234C234.769 184.864 235.202 185.3 235.202 185.839V195.212Z" fill="url(#paint10_linear_71_113)"/>
<path opacity="0.5" d="M191.687 144.404V144.688C191.687 145.924 190.684 146.932 189.458 146.932H157.623C156.398 146.932 155.395 145.922 155.395 144.688V144.404H191.687Z" fill="#171721"/>
<path opacity="0.1" d="M173.536 118.33C201.31 118.33 223.825 95.6499 223.825 67.6727C223.825 39.6956 201.31 17.0157 173.536 17.0157C145.763 17.0157 123.248 39.6956 123.248 67.6727C123.248 95.6499 145.763 118.33 173.536 118.33Z" fill="url(#paint11_linear_71_113)"/>
<path d="M138.859 53.9764V88.5595C161.427 95.3423 183.95 95.3667 206.434 88.5595V53.9764H138.859Z" fill="url(#paint12_linear_71_113)"/>
<path d="M174.093 63.3674L110.94 50.0478L174.093 32.8836L234.54 50.0478L174.093 63.3674Z" fill="url(#paint13_linear_71_113)"/>
<path d="M210.136 95.5374C209.766 95.5374 209.465 95.2338 209.465 94.8615V55.973L172.509 48.1797C172.146 48.1022 171.915 47.7454 171.99 47.3798C172.067 47.0142 172.421 46.7815 172.784 46.8569L210.274 54.7631C210.585 54.8296 210.807 55.1043 210.807 55.4234V94.8615C210.807 95.2338 210.508 95.5374 210.136 95.5374Z" fill="#FDB900"/>
<path d="M178.851 47.5172C178.851 48.6784 176.216 49.6201 172.962 49.6201C169.711 49.6201 167.073 48.6784 167.073 47.5172C167.073 46.3561 169.709 45.4144 172.962 45.4144C176.216 45.4166 178.851 46.3561 178.851 47.5172Z" fill="url(#paint14_linear_71_113)"/>
<path d="M215.068 108.21C214.67 108.396 214.271 108.562 213.873 108.702C213.601 108.802 213.328 108.886 213.055 108.961C212.408 109.143 211.766 109.265 211.119 109.329C210.846 109.356 210.571 109.371 210.299 109.378C209.452 109.393 208.603 109.311 207.754 109.125C207.461 109.063 207.171 108.988 206.88 108.897C206.284 108.72 205.686 108.489 205.09 108.21C204.832 108.09 204.7 107.796 204.791 107.523L208.688 95.5551C209.128 94.2012 211.029 94.2012 211.469 95.5551L215.369 107.523C215.457 107.796 215.325 108.09 215.068 108.21Z" fill="#FDB900"/>
<path d="M207.754 109.125C207.461 109.063 207.171 108.988 206.88 108.897L207.562 106.114L207.754 109.125Z" fill="#FD9801"/>
<path d="M213.873 108.702C213.6 108.802 213.328 108.886 213.055 108.961L212.369 102.867L213.873 108.702Z" fill="#FD9801"/>
<path d="M211.119 109.327C210.847 109.353 210.572 109.369 210.299 109.375L210.488 105.697L211.119 109.327Z" fill="#FD9801"/>
<path d="M210.079 97.5184C211.273 97.5184 212.241 96.5432 212.241 95.3402C212.241 94.1372 211.273 93.162 210.079 93.162C208.885 93.162 207.917 94.1372 207.917 95.3402C207.917 96.5432 208.885 97.5184 210.079 97.5184Z" fill="#FD9801"/>
<path d="M10.638 226.245L0.347522 235.629C-0.369598 236.283 0.0901506 237.482 1.05584 237.482H69.4814C72.9746 237.482 76.3028 235.973 78.617 233.336L90.8124 219.447C93.2431 216.677 91.292 212.314 87.6228 212.314H25.8537C25.5853 212.314 25.3279 212.416 25.1322 212.6L10.638 226.245Z" fill="#51578F"/>
<path d="M75.3461 222.489C75.0205 223.559 74.6025 224.335 74.6025 224.335C74.1252 218.04 66.8792 218.696 66.8792 218.696H5.94604V231.115H72.2994L76.05 223.852L75.3461 222.489Z" fill="white"/>
<path d="M74.6026 224.335C74.6026 224.335 75.0205 223.559 75.3461 222.489L72.2994 216.586H5.94604V218.695H66.8792C66.8792 218.698 74.1252 218.04 74.6026 224.335Z" fill="#D0D0D0"/>
<path d="M84.5683 200.574L78.112 206.601L75.3844 209.145L67.4102 216.588H5.94693C5.15942 216.588 4.51929 215.941 4.51929 215.15C4.51929 214.514 4.93284 213.971 5.50478 213.783L14.1322 209.147L20.7073 205.611L30.8723 200.148H82.6611C82.6589 200.144 83.4574 200.239 84.5683 200.574Z" fill="#0459BC"/>
<path d="M42.4752 200.142L15.6184 216.586H8.71777L36.2939 200.142H42.4752Z" fill="#093F9D"/>
<path d="M5.94604 221.563H67.1476C67.4137 221.563 67.6293 221.346 67.6293 221.078C67.6293 220.809 67.4137 220.592 67.1476 220.592H5.94604V221.563Z" fill="#D0D0D0"/>
<path d="M5.94604 224.92H67.1476C67.4137 224.92 67.6293 224.703 67.6293 224.435C67.6293 224.167 67.4137 223.949 67.1476 223.949H5.94604V224.92Z" fill="#D0D0D0"/>
<path d="M5.94604 228.277H67.1476C67.4137 228.277 67.6293 228.06 67.6293 227.792C67.6293 227.524 67.4137 227.307 67.1476 227.307H5.94604V228.277Z" fill="#D0D0D0"/>
<path d="M84.7631 200.632C83.7996 200.288 82.6579 200.142 82.6579 200.142L78.6324 200.157L78.628 200.206L71.7032 200.171L65.1787 207.37L56.7866 216.584H67.4049C71.382 216.584 74.6156 219.843 74.6156 223.847C74.6156 227.854 71.382 231.111 67.4049 231.111H5.94595C5.15844 231.111 4.51611 231.76 4.51611 232.551C4.51611 233.345 5.16064 233.992 5.94595 233.992H67.407H67.5654C67.616 233.992 67.6644 233.989 67.7128 233.983C70.6759 233.892 73.3222 232.507 75.1106 230.371C78.5774 226.768 89.8687 214.824 90.8674 211.119C92.7306 204.219 87.768 201.578 84.7631 200.632Z" fill="#093F9D"/>
<path d="M75.3461 201.981C75.0205 203.051 74.6025 203.827 74.6025 203.827C74.1252 197.532 66.8792 198.187 66.8792 198.187H5.94604V210.605H72.2994L76.05 203.342L75.3461 201.981Z" fill="white"/>
<path d="M74.6026 203.827C74.6026 203.827 75.0205 203.051 75.3461 201.981L72.2994 196.078H5.94604V198.188H66.8792C66.8792 198.19 74.1252 197.532 74.6026 203.827Z" fill="#D0D0D0"/>
<path d="M84.5686 180.066L78.1123 186.093L75.3846 188.637L67.4105 196.08H5.94717C5.15966 196.08 4.51953 195.433 4.51953 194.642C4.51953 194.006 4.93308 193.463 5.50502 193.275L14.1325 188.639L20.7075 185.103L30.8726 179.641H82.6614C82.6592 179.636 83.4577 179.731 84.5686 180.066Z" fill="#51578F"/>
<path d="M42.4752 179.634L15.6184 196.078H8.71777L36.2939 179.634H42.4752Z" fill="#51578F"/>
<path d="M5.94604 201.053H67.1476C67.4137 201.053 67.6293 200.836 67.6293 200.567C67.6293 200.299 67.4137 200.082 67.1476 200.082H5.94604V201.053Z" fill="#D0D0D0"/>
<path d="M5.94604 204.412H67.1476C67.4137 204.412 67.6293 204.195 67.6293 203.927C67.6293 203.659 67.4137 203.441 67.1476 203.441H5.94604V204.412Z" fill="#D0D0D0"/>
<path d="M5.94604 207.769H67.1476C67.4137 207.769 67.6293 207.552 67.6293 207.284C67.6293 207.016 67.4137 206.798 67.1476 206.798H5.94604V207.769Z" fill="#D0D0D0"/>
<path d="M84.7631 180.124C83.7996 179.783 82.6579 179.634 82.6579 179.634L78.6324 179.652L78.628 179.701L71.7032 179.665L65.1787 186.864L56.7866 196.078H67.4049C71.382 196.078 74.6156 199.338 74.6156 203.342C74.6156 207.346 71.382 210.605 67.4049 210.605H5.94595C5.15844 210.605 4.51611 211.255 4.51611 212.046C4.51611 212.839 5.16064 213.486 5.94595 213.486H67.407H67.5654C67.616 213.486 67.6644 213.484 67.7128 213.477C70.6759 213.386 73.3222 212.001 75.1106 209.865C78.5774 206.262 89.8687 194.319 90.8674 190.614C92.7306 183.709 87.768 181.07 84.7631 180.124Z" fill="#51578F"/>
<path d="M75.3461 181.338C75.0205 182.408 74.6025 183.184 74.6025 183.184C74.1252 176.889 66.8792 177.544 66.8792 177.544H5.94604V189.962H72.2994L76.05 182.699L75.3461 181.338Z" fill="white"/>
<path d="M74.6026 183.184C74.6026 183.184 75.0205 182.408 75.3461 181.338L72.2994 175.435H5.94604V177.544H66.8792C66.8792 177.544 74.1252 176.889 74.6026 183.184Z" fill="#D0D0D0"/>
<path d="M84.5686 159.421L78.1123 165.448L75.3846 167.992L67.4105 175.435H5.94717C5.15966 175.435 4.51953 174.788 4.51953 173.997C4.51953 173.361 4.93308 172.818 5.50502 172.63L14.1325 167.994L20.7075 164.458L30.8726 158.996H82.6614C82.6592 158.993 83.4577 159.086 84.5686 159.421Z" fill="#FDB900"/>
<path d="M42.4752 158.991L15.6184 175.433H8.71777L36.2939 158.991H42.4752Z" fill="#FD9801"/>
<path d="M5.94604 180.41H67.1476C67.4138 180.41 67.6293 180.192 67.6293 179.924C67.6293 179.656 67.4138 179.439 67.1476 179.439H5.94604V180.41Z" fill="#D0D0D0"/>
<path d="M5.94604 183.767H67.1476C67.4137 183.767 67.6293 183.549 67.6293 183.281C67.6293 183.013 67.4137 182.796 67.1476 182.796H5.94604V183.767Z" fill="#D0D0D0"/>
<path d="M5.94604 187.126H67.1476C67.4137 187.126 67.6293 186.909 67.6293 186.641C67.6293 186.372 67.4137 186.155 67.1476 186.155H5.94604V187.126Z" fill="#D0D0D0"/>
<path d="M84.7631 159.478C83.7996 159.135 82.6579 158.989 82.6579 158.989L78.6324 159.007L78.628 159.055L71.7032 159.02L65.1787 166.219L56.7866 175.433H67.4049C71.382 175.433 74.6156 178.692 74.6156 182.696C74.6156 186.703 71.382 189.96 67.4049 189.96H5.94595C5.15844 189.96 4.51611 190.609 4.51611 191.4C4.51611 192.194 5.16064 192.841 5.94595 192.841H67.407H67.5654C67.616 192.841 67.6644 192.838 67.7128 192.832C70.6759 192.741 73.3222 191.356 75.1106 189.22C78.5774 185.617 89.8687 173.673 90.8674 169.968C92.7306 163.066 87.768 160.427 84.7631 159.478Z" fill="#FD9801"/>
<path d="M288.386 201.866C288.386 204.647 279.382 206.903 268.278 206.903C257.171 206.903 248.17 204.647 248.17 201.866C248.17 199.085 257.173 196.829 268.278 196.829C279.382 196.829 288.386 199.083 288.386 201.866Z" fill="#51578F"/>
<path d="M248.167 155.656C248.167 155.656 258.821 154.475 266.98 154.475C275.136 154.475 288.385 155.656 288.385 155.656C288.385 155.656 279.745 160.048 268.278 160.048C256.808 160.048 248.167 155.656 248.167 155.656Z" fill="#093F9D"/>
<path d="M259.15 142.84L252.935 143.299L256.43 190.496L262.646 190.036L259.15 142.84Z" fill="#FDB900"/>
<path d="M259.138 142.842L252.923 143.305L254.641 138.687L255.532 136.296L256.764 138.53L259.138 142.842Z" fill="#FAB08D"/>
<path d="M262.602 190.038L256.388 190.501L256.137 187.073L262.352 186.61L262.602 190.038Z" fill="url(#paint15_linear_71_113)"/>
<path d="M262.541 192.792L256.852 193.215C256.707 193.226 256.579 193.115 256.568 192.969L256.388 190.501L262.602 190.038L262.783 192.506C262.796 192.652 262.686 192.781 262.541 192.792Z" fill="#FD3F2C"/>
<path d="M256.764 138.53L254.641 138.687L255.532 136.296L256.764 138.53Z" fill="url(#paint16_linear_71_113)"/>
<path d="M262.185 184.143L255.97 184.607L256.151 187.066L262.366 186.603L262.185 184.143Z" fill="#FD9801"/>
<path d="M254.639 145.514L257.206 180.465C257.226 180.729 257.455 180.928 257.717 180.908C257.978 180.888 258.176 180.658 258.156 180.394L255.592 145.443C255.572 145.18 255.343 144.98 255.081 145C254.817 145.02 254.619 145.25 254.639 145.514Z" fill="#FD9801"/>
<path d="M257.07 145.33L259.635 180.281C259.654 180.545 259.883 180.744 260.145 180.724C260.407 180.704 260.605 180.474 260.585 180.21L258.02 145.259C258 144.996 257.771 144.796 257.51 144.816C257.248 144.838 257.05 145.066 257.07 145.33Z" fill="#FD9801"/>
<path d="M263.357 186.783L269.572 187.239L272.983 140.035L266.767 139.579L263.357 186.783Z" fill="#FDB900"/>
<path d="M263.372 186.782L269.586 187.239L267.217 191.553L265.99 193.787L265.097 191.398L263.372 186.782Z" fill="#FAB08D"/>
<path d="M266.784 139.582L272.998 140.039L272.752 143.467L266.535 143.012L266.784 139.582Z" fill="url(#paint17_linear_71_113)"/>
<path d="M267.243 136.868L272.932 137.284C273.077 137.295 273.187 137.422 273.176 137.568L272.998 140.036L266.784 139.58L266.962 137.112C266.973 136.967 267.098 136.857 267.243 136.868Z" fill="#FD3F2C"/>
<path d="M265.096 191.398L267.217 191.553L265.99 193.787L265.096 191.398Z" fill="url(#paint18_linear_71_113)"/>
<path d="M266.538 142.999L266.36 145.459L272.576 145.914L272.754 143.455L266.538 142.999Z" fill="#FD9801"/>
<path d="M268.209 184.799L270.737 149.844C270.757 149.58 270.559 149.35 270.297 149.33C270.035 149.31 269.806 149.509 269.786 149.773L267.259 184.728C267.239 184.992 267.437 185.223 267.699 185.242C267.963 185.262 268.192 185.065 268.209 184.799Z" fill="#FD9801"/>
<path d="M265.779 184.624L268.306 149.669C268.326 149.405 268.128 149.175 267.866 149.157C267.604 149.137 267.376 149.336 267.356 149.6L264.828 184.556C264.808 184.819 265.006 185.05 265.268 185.07C265.532 185.087 265.759 184.888 265.779 184.624Z" fill="#FD9801"/>
<path d="M272.088 188.444L278.177 189.783L288.193 143.545L282.105 142.206L272.088 188.444Z" fill="#FDB900"/>
<path d="M272.081 188.449L278.17 189.787L275.218 193.72L273.687 195.757L273.139 193.264L272.081 188.449Z" fill="#FAB08D"/>
<path d="M282.096 142.212L288.185 143.549L287.457 146.91L281.368 145.572L282.096 142.212Z" fill="url(#paint19_linear_71_113)"/>
<path d="M282.935 139.591L288.506 140.817C288.649 140.848 288.74 140.989 288.709 141.133L288.185 143.551L282.096 142.212L282.62 139.795C282.651 139.651 282.792 139.56 282.935 139.591Z" fill="#FD3F2C"/>
<path d="M273.139 193.264L275.218 193.72L273.687 195.757L273.139 193.264Z" fill="url(#paint20_linear_71_113)"/>
<path d="M281.376 145.579L280.854 147.989L286.942 149.327L287.464 146.918L281.376 145.579Z" fill="#FD9801"/>
<path d="M277.149 187.177L284.567 152.935C284.624 152.676 284.459 152.421 284.204 152.363C283.946 152.308 283.693 152.472 283.636 152.729L276.219 186.971C276.164 187.23 276.326 187.485 276.582 187.543C276.839 187.6 277.094 187.436 277.149 187.177Z" fill="#FD9801"/>
<path d="M274.767 186.656L282.184 152.414C282.239 152.155 282.079 151.9 281.821 151.845C281.564 151.787 281.311 151.951 281.254 152.211L273.836 186.452C273.781 186.712 273.944 186.966 274.199 187.024C274.456 187.077 274.712 186.913 274.767 186.656Z" fill="#FD9801"/>
<path d="M288.385 155.656C288.385 155.656 288.385 155.658 288.383 155.663L282.503 200.86C273.018 205.77 263.535 205.77 254.05 200.86L253.385 195.759V195.757L248.167 155.656C261.575 160.657 274.978 160.657 288.385 155.656Z" fill="#0459BC"/>
<path d="M288.383 155.663L282.503 200.86C273.018 205.77 263.535 205.77 254.05 200.86L253.385 195.759V195.757C253.385 195.757 263.59 201.729 272.081 196.794C281.362 191.398 288.269 156.223 288.383 155.663Z" fill="#093F9D"/>
<path d="M268.72 217.455C268.72 219.956 285.123 221.986 305.361 221.986C325.597 221.986 342 219.959 342 217.455C342 214.953 325.597 212.923 305.361 212.923C285.123 212.923 268.72 214.953 268.72 217.455Z" fill="#51578F"/>
<path d="M297.475 212.145H291.608L287.873 166.715L292.07 125.046L307.922 123.55L298.416 171.05C301.102 182.027 298.859 196.074 297.475 212.145Z" fill="url(#paint21_linear_71_113)"/>
<path d="M297.644 211.789C297.644 211.789 297.998 212.285 297.998 213.313C297.998 214.339 297.899 217.882 297.899 217.882H280.73C280.73 217.882 280.667 215.19 282.842 213.752C285.018 212.314 288.359 213.723 291.553 211.463C291.553 211.463 292.409 212.25 297.644 211.789Z" fill="white"/>
<path d="M329.598 211.802C328.463 199.488 323.135 174.708 319.736 169.364L319.703 122.903L304.213 126.602L308.841 169.461L323.658 211.461C325.427 212.458 327.479 212.27 329.598 211.802Z" fill="url(#paint22_linear_71_113)"/>
<path d="M329.598 211.802C329.598 211.802 329.99 212.325 329.99 213.353C329.99 214.379 329.99 217.882 329.99 217.882H312.836C312.836 217.882 312.772 215.19 314.948 213.752C317.123 212.314 320.465 213.723 323.659 211.463C323.661 211.463 324.363 212.263 329.598 211.802Z" fill="white"/>
<path d="M291.12 125.243C291.866 126.513 294.415 127.488 296.61 128.029C296.762 128.066 296.912 128.102 297.057 128.135C297.44 128.222 297.805 128.292 298.141 128.352C301.742 128.966 305.368 129.241 309.015 129.243C309.69 129.243 310.407 129.196 311.144 129.103C311.292 129.086 311.441 129.066 311.591 129.044C315.385 128.49 319.607 126.834 321.723 124.703L318.665 110.787L324.607 76.2084L316.729 73.474L316.307 73.3277L314.538 72.7139L313.135 72.2264L304.796 73.3344L303.438 73.5139L302.959 73.5781L296.993 74.3714L291.12 125.243Z" fill="#FDB900"/>
<path d="M297.352 51.4969C297.352 51.4969 294.083 50.482 294.272 47.3975C294.459 44.3153 296.646 42.3631 301.206 43.9363C305.766 45.5096 313.878 43.7391 316.699 47.3975C319.519 51.0537 315.968 62.851 315.968 62.851L297.352 51.4969Z" fill="#131E30"/>
<path d="M305.922 67.6484L306.307 72.3882L306.483 74.5597C309.248 76.5119 313.59 73.6113 313.59 73.6113L313.784 66.166C312.506 65.3461 309.387 66.5383 307.455 67.1321C306.547 67.4135 305.922 67.6484 305.922 67.6484Z" fill="#FAB08D"/>
<path d="M305.922 67.6484L306.307 72.3881C309.475 71.5638 312.031 67.0435 312.031 67.0435L307.455 67.1321C306.547 67.4135 305.922 67.6484 305.922 67.6484Z" fill="#F28368"/>
<path d="M296.993 55.5962C297 55.758 297.006 55.9242 297.015 56.0904C297.178 59.0707 297.776 62.6826 298.35 65.6209C298.96 68.7364 302.004 70.7329 305.08 70.0282C307.402 69.4964 310.062 68.8006 312.231 68.0007C312.957 67.7326 313.606 67.3049 314.132 66.7576C314.534 66.341 314.864 65.8557 315.104 65.3173C315.634 64.1362 316.001 62.8843 316.257 61.6035C316.461 60.5664 316.591 59.5095 316.668 58.4481C316.675 58.3816 316.683 58.3196 316.697 58.2575C316.681 57.6836 316.664 57.1097 316.639 56.5469V56.5446C316.503 53.0923 316.257 50.1097 316.257 50.1097C311.648 44.6255 299.239 47.1161 297.442 51.2576C297.409 51.3329 297.378 51.4149 297.35 51.4969C297.017 52.4563 296.925 53.91 296.993 55.5962Z" fill="#FAB08D"/>
<path d="M314.134 66.7553C314.536 66.3387 314.866 65.8534 315.106 65.315C315.636 64.1339 316.003 62.882 316.259 61.6012C315.77 61.5214 315.128 61.568 314.332 61.938C314.329 61.9402 311.764 65.8579 314.134 66.7553Z" fill="#131E30"/>
<path d="M297.352 51.4969C301.149 53.9565 307.453 50.4776 307.453 50.4776C307.869 52.1949 310.363 52.0952 311.032 53.5443C311.402 54.3465 311.564 55.532 311.637 56.4316C311.694 57.1407 312.29 57.6814 312.996 57.6636C314.615 55.2904 316.639 56.5468 316.639 56.5468V56.5446C316.503 53.0923 316.256 50.1097 316.256 50.1097C311.648 44.6255 299.239 47.1161 297.442 51.2576C297.411 51.3351 297.38 51.4149 297.352 51.4969Z" fill="#131E30"/>
<path d="M312.999 57.6636C312.999 57.6636 314.936 55.1774 316.641 56.5468C318.52 58.058 317.24 63.3673 313.493 63.3407L312.999 57.6636Z" fill="#FAB08D"/>
<path d="M296.995 74.3713C296.995 74.3713 285.68 97.186 283.284 104.013C283.284 104.013 270.724 104.334 265.431 104.013L266.85 110.271C266.85 110.271 279.897 111.651 284.105 111.97C287.952 112.263 294.002 100.324 294.002 100.324L296.995 74.3713Z" fill="#FD9801"/>
<path d="M288.57 111.299C301.093 116.07 314.695 110.218 314.695 110.218C314.695 110.218 324.378 100.463 326.648 89.9091C328.916 79.3527 324.607 76.2061 324.607 76.2061C316.934 96.0071 310.682 104.013 310.682 104.013C310.682 104.013 300.154 105.799 295.165 106.484C292.453 106.858 288.57 105.626 288.57 105.626C288.073 108.485 288.57 111.299 288.57 111.299Z" fill="#FD9801"/>
<path d="M288.57 105.628C288.57 105.628 286.639 103.271 285.691 103.271C284.743 103.271 284.175 104.45 284.175 104.45C284.175 104.45 281.623 103.557 280.488 104.771C279.353 105.985 278.911 113.889 288.572 111.299V105.628H288.57Z" fill="#FAB08D"/>
<path d="M261.969 95.3446L272.063 120.26C272.422 121.146 273.278 121.722 274.226 121.722H289.316C290.977 121.722 292.107 120.029 291.478 118.483L281.386 93.5675C281.027 92.6812 280.172 92.105 279.223 92.105H264.133C262.472 92.1028 261.342 93.7957 261.969 95.3446Z" fill="white"/>
<path d="M261.969 95.3446L272.063 120.26C272.422 121.146 273.278 121.722 274.226 121.722H286.505C288.165 121.722 289.296 120.029 288.667 118.483L278.575 93.5675C278.216 92.6812 277.36 92.105 276.412 92.105H264.133C262.472 92.1028 261.342 93.7957 261.969 95.3446Z" fill="url(#paint23_linear_71_113)"/>
<path opacity="0.2" d="M271.903 107.74C272.424 109.11 273.948 110.218 275.306 110.218C276.665 110.218 277.343 109.107 276.821 107.74C276.3 106.371 274.775 105.263 273.418 105.263C272.061 105.263 271.381 106.373 271.903 107.74Z" fill="#011B2E"/>
<path d="M264.536 105.088C264.536 105.088 263.405 102.537 264.604 101.853L265.625 104.374C265.625 104.374 267.844 102.356 269.386 103.34C270.928 104.323 273.41 109.692 272.633 111.131C271.857 112.571 267.552 113.838 266.019 112.043C264.485 110.249 263.968 106.725 264.536 105.088Z" fill="#FAB08D"/>
<path d="M258.174 221.791C261.54 215.919 271.749 215.509 280.975 220.876C290.203 226.243 294.954 235.352 291.589 241.224C288.223 247.096 278.016 247.506 268.788 242.139C259.56 236.773 254.809 227.663 258.174 221.791Z" fill="#51578F"/>
<path d="M291.393 235.902H291.386C291.327 236.188 291.23 236.451 291.089 236.679C291.089 236.679 291.089 236.686 291.082 236.686C287.589 242.383 268.946 239.128 266.87 234.091C266.689 233.653 266.509 233.249 266.342 232.873C263.755 227.275 262.11 228.833 257.569 225.037C257.371 224.873 257.191 224.703 257.041 224.528C257.024 224.503 257 224.488 256.982 224.463C254.424 221.53 257.569 217.787 257.569 217.787C257.761 217.634 257.952 217.488 258.146 217.348C258.146 217.342 258.146 217.342 258.146 217.342C259.663 216.236 261.238 215.485 262.842 215.035C263.575 214.824 264.318 214.683 265.062 214.603C278.359 213.08 292.614 230.109 291.393 235.902Z" fill="white"/>
<path d="M291.085 236.686C287.592 242.383 268.949 239.128 266.872 234.091C266.692 233.653 266.511 233.249 266.344 232.873C263.74 227.297 261.973 228.99 257.571 225.037C257.38 224.867 257.204 224.698 257.044 224.528C257.026 224.503 257.002 224.488 256.984 224.463C254.426 221.53 257.571 217.787 257.571 217.787C257.763 217.634 257.954 217.488 258.148 217.348C257.776 218.432 257.422 220.878 260.37 223.256C261.06 223.819 261.852 224.233 262.666 224.596C263.311 224.878 264.609 225.868 266.92 229.117C270.623 234.311 270.119 234.973 278.333 237.238C286.357 239.463 290.887 236.804 291.085 236.686Z" fill="url(#paint24_linear_71_113)"/>
<path d="M270.988 219.159C266.232 215.183 262.844 215.037 262.844 215.037C263.577 214.826 264.32 214.685 265.064 214.605C268.856 215.897 270.942 219.001 270.988 219.159Z" fill="url(#paint25_linear_71_113)"/>
<path d="M71.4746 252H269.309L243.185 210.229H97.5989L71.4746 252Z" fill="#51578F"/>
<path d="M78.1199 239.115H263.108L245.092 210.229H96.1337L78.1199 239.115Z" fill="url(#paint26_linear_71_113)"/>
<path d="M78.116 245.658L263.104 245.658V239.117L78.116 239.117V245.658Z" fill="#A0A0A0"/>
<path d="M235.207 215.33H244.556L243.185 212.369H234.135L235.207 215.33Z" fill="white"/>
<path d="M233.997 215.33L232.815 212.369H223.763L224.648 215.33H233.997Z" fill="white"/>
<path d="M223.438 215.33L222.444 212.369H213.392L214.089 215.33H223.438Z" fill="white"/>
<path d="M212.846 215.33L212.039 212.369H202.987L203.497 215.33H212.846Z" fill="white"/>
<path d="M202.274 215.33L201.656 212.369H192.606L192.927 215.33H202.274Z" fill="white"/>
<path d="M191.704 215.33L191.275 212.369H182.223L182.357 215.33H191.704Z" fill="white"/>
<path d="M181.163 215.33L180.919 212.369H171.869L171.814 215.33H181.163Z" fill="white"/>
<path d="M170.686 215.33L170.631 212.369H161.581L161.337 215.33H170.686Z" fill="white"/>
<path d="M160.142 215.33L160.276 212.369H151.224L150.795 215.33H160.142Z" fill="white"/>
<path d="M149.572 215.33L149.893 212.369H140.844L140.226 215.33H149.572Z" fill="white"/>
<path d="M139.002 215.33L139.513 212.369H130.461L129.654 215.33H139.002Z" fill="white"/>
<path d="M128.411 215.33L129.106 212.369H120.056L119.062 215.33H128.411Z" fill="white"/>
<path d="M117.852 215.33L118.736 212.369H109.684L108.503 215.33H117.852Z" fill="white"/>
<path d="M107.293 215.33H97.9441L99.3145 212.369H108.364L107.293 215.33Z" fill="white"/>
<path d="M237.149 220.863H246.839L245.42 217.794H236.036L237.149 220.863Z" fill="white"/>
<path d="M235.893 220.863L234.668 217.794H225.283L226.201 220.863H235.893Z" fill="white"/>
<path d="M224.947 220.863L223.915 217.794H214.531L215.255 220.863H224.947Z" fill="white"/>
<path d="M213.963 220.863L213.128 217.794H203.743L204.271 220.863H213.963Z" fill="white"/>
<path d="M203.004 220.863L202.364 217.794H192.98L193.312 220.863H203.004Z" fill="white"/>
<path d="M192.045 220.863L191.601 217.794H182.217L182.353 220.863H192.045Z" fill="white"/>
<path d="M181.117 220.863L180.864 217.794H171.48L171.425 220.863H181.117Z" fill="white"/>
<path d="M170.254 220.863L170.197 217.794H160.813L160.562 220.863H170.254Z" fill="white"/>
<path d="M159.324 220.863L159.463 217.794H150.078L149.632 220.863H159.324Z" fill="white"/>
<path d="M148.365 220.863L148.699 217.794H139.315L138.673 220.863H148.365Z" fill="white"/>
<path d="M137.405 220.863L137.933 217.794H128.549L127.713 220.863H137.405Z" fill="white"/>
<path d="M126.424 220.863L127.146 217.794H117.762L116.732 220.863H126.424Z" fill="white"/>
<path d="M115.476 220.863L116.396 217.794H107.012L105.786 220.863H115.476Z" fill="white"/>
<path d="M104.53 220.863H94.8381L96.2592 217.794H105.643L104.53 220.863Z" fill="white"/>
<path d="M238.889 226.3H248.871L247.409 223.138H237.743L238.889 226.3Z" fill="white"/>
<path d="M237.595 226.3L236.333 223.138H226.667L227.613 226.3H237.595Z" fill="white"/>
<path d="M226.319 226.3L225.259 223.138H215.594L216.337 226.3H226.319Z" fill="white"/>
<path d="M215.008 226.3L214.148 223.138H204.483L205.026 226.3H215.008Z" fill="white"/>
<path d="M203.721 226.3L203.061 223.138H193.396L193.739 226.3H203.721Z" fill="white"/>
<path d="M192.434 226.3L191.975 223.138H182.309L182.452 226.3H192.434Z" fill="white"/>
<path d="M181.176 226.3L180.917 223.138H171.253L171.194 226.3H181.176Z" fill="white"/>
<path d="M169.99 226.3L169.931 223.138H160.265L160.008 226.3H169.99Z" fill="white"/>
<path d="M158.732 226.3L158.875 223.138H149.209L148.75 226.3H158.732Z" fill="white"/>
<path d="M147.445 226.3L147.788 223.138H138.123L137.463 226.3H147.445Z" fill="white"/>
<path d="M136.158 226.3L136.702 223.138H127.036L126.176 226.3H136.158Z" fill="white"/>
<path d="M124.845 226.3L125.591 223.138H115.925L114.862 226.3H124.845Z" fill="white"/>
<path d="M113.571 226.3L114.515 223.138H104.851L103.589 226.3H113.571Z" fill="white"/>
<path d="M102.295 226.3H92.3127L93.7756 223.138H103.441L102.295 226.3Z" fill="white"/>
<path d="M241.311 231.844H251.639L250.125 228.574H240.125L241.311 231.844Z" fill="white"/>
<path d="M239.974 231.844L238.667 228.574H228.665L229.643 231.844H239.974Z" fill="white"/>
<path d="M228.306 231.844L227.206 228.574H217.206L217.976 231.844H228.306Z" fill="white"/>
<path d="M216.601 231.844L215.71 228.574H205.708L206.271 231.844H216.601Z" fill="white"/>
<path d="M204.92 231.844L204.236 228.574H194.236L194.59 231.844H204.92Z" fill="white"/>
<path d="M148.512 228.574H158.512H159.953H169.955H171.321H181.324H192.765L193.24 231.844H181.592H171.262H170.015H159.685H158.365H148.035L148.512 228.574Z" fill="white"/>
<path d="M146.686 231.844L147.04 228.574H137.038L136.356 231.844H146.686Z" fill="white"/>
<path d="M135.006 231.844L135.569 228.574H125.567L124.676 231.844H135.006Z" fill="white"/>
<path d="M123.301 231.844L124.071 228.574H114.068L112.971 231.844H123.301Z" fill="white"/>
<path d="M111.633 231.844L112.612 228.574H102.61L101.303 231.844H111.633Z" fill="white"/>
<path d="M99.9658 231.844H89.6357L91.1492 228.574H101.151L99.9658 231.844Z" fill="white"/>
<path opacity="0.5" d="M76.2238 169.173C76.2238 171.081 62.9021 172.628 46.4677 172.628C30.0334 172.628 16.7117 171.081 16.7117 169.173C16.7117 167.265 30.0334 165.718 46.4677 165.718C62.9021 165.718 76.2238 167.265 76.2238 169.173Z" fill="#FD9801"/>
<path d="M62.7591 146.332C48.7181 127.315 43.0273 106.193 43.0273 106.193L43.0471 124.552C43.0471 124.552 55.0248 144.756 59.1933 149.259C60.8563 149.259 62.7591 148.503 62.7591 146.332Z" fill="#1A598C"/>
<path d="M37.4267 152.317C37.4267 152.317 57.0991 143.498 66.0301 145.68C74.9611 147.863 94.6687 168.364 94.6687 168.364C94.9194 170.613 93.4654 172.167 91.0215 173.319C91.0215 173.319 74.8115 163.549 64.8554 153.919C64.8554 153.919 47.7787 163.257 38.3682 160.272C37.4575 159.982 35.029 154.896 37.4267 152.317Z" fill="url(#paint27_linear_71_113)"/>
<path d="M90.8411 173.286C90.8411 173.286 91.0105 173.893 91.8288 174.555C92.6471 175.218 95.5397 177.42 95.5397 177.42L106.607 163.52C106.607 163.52 104.497 161.734 101.95 162.568C99.4003 163.401 98.3708 167.015 94.5081 168.145C94.5059 168.143 94.5828 169.344 90.8411 173.286Z" fill="#E6E6E6"/>
<path d="M22.3167 111.031C28.9071 113.014 34.5913 114.157 43.1725 112.36C44.2416 108.086 48.5663 94.3696 49.2262 87.8926C49.3846 86.3415 48.9689 83.2237 48.5245 81.7679C47.4686 78.3156 44.3538 74.4001 37.1958 74.1387C28.7509 73.8307 24.0325 81.9651 24.2458 91.0923C24.369 96.4769 22.7786 107.798 22.3167 111.031Z" fill="#131E30"/>
<path d="M37.607 101.008L37.2353 103.111L36.8151 105.489L36.4544 107.543C35.2533 108.228 33.8586 108.048 32.6576 107.614C31.0408 107.033 29.7649 105.996 29.7649 105.996L29.7781 105.83L29.8419 105.052L30.2664 99.8029L30.3522 98.7016C31.0034 98.367 32.0306 98.6085 33.1151 99.0251C34.182 99.4306 35.3061 100.011 36.1904 100.377C37.0307 100.731 37.607 101.008 37.607 101.008Z" fill="#FAB08D"/>
<path d="M37.6071 101.01L36.8174 105.491C33.8719 104.419 31.8394 99.8804 31.8394 99.8804L36.1905 100.379C37.033 100.729 37.6071 101.01 37.6071 101.01Z" fill="#F28368"/>
<path d="M42.3741 102.941C40.6407 103.49 38.8853 103.461 37.2377 103.111C35.6627 102.779 34.1844 102.161 32.8976 101.469C31.8813 100.922 30.986 100.33 30.2645 99.8051C29.6793 99.3797 29.202 98.9919 28.8676 98.7082C28.5069 98.398 28.3089 98.2052 28.3089 98.2052C28.3089 98.2052 28.2363 97.0774 28.2583 95.4376C28.2825 93.6959 28.4079 91.3803 28.8324 89.2354C29.3428 86.6694 30.2777 84.3516 31.9759 83.5627L34.7498 83.5893L47.8911 83.7112C47.8911 83.7112 47.9087 83.9106 47.9285 84.2674C47.9725 85.0474 48.0341 86.583 47.9879 88.4576C47.9857 88.5994 47.9813 88.739 47.9747 88.8853C47.8119 94.0926 46.7802 101.551 42.3741 102.941Z" fill="#FAB08D"/>
<path d="M29.8002 100.911C29.4372 100.601 28.3088 98.2075 28.3088 98.2075C28.3088 98.2075 28.2384 97.0796 28.2604 95.4398L29.4416 96.1068C29.4416 96.1068 31.0694 99.9624 29.8002 100.911Z" fill="#131E30"/>
<path d="M31.0343 90.8618C31.0343 90.8618 29.4197 88.174 27.5829 89.652C25.5591 91.2806 26.4676 97.0153 30.5041 96.9821L31.0343 90.8618Z" fill="#FAB08D"/>
<path d="M47.9305 84.2696C47.8909 85.978 44.9169 87.6887 34.0567 87.7884C34.0567 87.7884 34.0523 92.8295 31.9141 92.3708C31.406 92.2622 30.9044 89.3771 28.8345 89.2375C29.3426 86.6738 30.2797 84.356 31.9779 83.5649L47.8953 83.7134C47.8931 83.7134 47.9107 83.9128 47.9305 84.2696Z" fill="#131E30"/>
<path d="M35.106 84.17C35.106 84.17 33.8235 91.7128 33.113 99.0296C33.0338 99.8495 32.959 100.667 32.8974 101.471C32.7523 103.324 31.3686 105.436 29.776 105.835L30.2621 99.8074C29.6748 99.3819 29.1997 98.9942 28.8653 98.7105C28.5023 98.4003 28.3044 98.2075 28.3044 98.2075C28.3044 98.2075 28.234 97.0796 28.256 95.4399C28.278 93.7004 28.4034 91.3826 28.8301 89.2399C29.3382 86.6761 30.2753 84.3583 31.9736 83.5673L34.7496 83.5916C35.0554 83.8664 35.106 84.17 35.106 84.17Z" fill="#131E30"/>
<path d="M21.2827 153.837C21.2827 153.837 45.8495 151.736 54.9565 152.979C64.0635 154.22 85.7684 172.559 85.7684 172.559C86.248 174.77 84.9611 176.468 82.6492 177.866C82.6492 177.866 65.5241 169.835 54.6309 161.293C54.6309 161.293 35.8011 171.043 25.999 169.915C18.2888 169.029 19.2193 157.074 21.2827 153.837Z" fill="url(#paint28_linear_71_113)"/>
<path d="M82.4644 177.853C82.4644 177.853 82.6931 178.438 83.5774 179.011C84.4595 179.585 87.5612 181.473 87.5612 181.473L97.1433 166.496C97.1433 166.496 94.8622 164.938 92.4138 166.033C89.9633 167.128 89.31 170.83 85.5836 172.355C85.5836 172.357 85.7838 173.543 82.4644 177.853Z" fill="white"/>
<path d="M42.4381 136.792C42.0686 143.265 43.252 147.017 45.091 152.576C34.2352 156.456 29.2704 157.952 20.2866 156.487C19.9698 151.169 19.0855 141.911 19.2395 136.336C19.6993 119.761 21.5669 109.121 21.5669 109.121L26.0852 107.361L30.7134 105.56L38.5666 105.961L40.2186 106.047L43.0277 106.193C43.0277 106.193 43.3862 114.268 45.8719 121.197C47.8935 126.832 45.575 127.964 44.3079 129.305C44.2573 129.356 44.2111 129.409 44.1649 129.462C43.9846 129.671 43.8372 129.883 43.7338 130.125C43.703 130.198 43.6722 130.278 43.6414 130.362C43.5644 130.573 43.4874 130.812 43.4192 131.067C42.8077 133.26 42.4381 136.792 42.4381 136.792Z" fill="#3788CC"/>
<path d="M44.3098 129.305C44.2592 129.356 44.213 129.409 44.1668 129.462C43.9864 129.671 43.839 129.883 43.7356 130.125C43.7048 130.198 43.6741 130.278 43.6433 130.362C41.6789 131.224 37.5125 132.684 31.9098 132.684C31.6568 132.684 31.4016 132.682 31.1421 132.675C30.9573 132.671 30.8121 132.518 30.8165 132.332C30.8209 132.15 30.9705 132.006 31.1487 132.006H31.1575C38.1813 132.172 43.1571 129.888 44.3098 129.305Z" fill="#3788CC"/>
<path d="M38.5661 105.963C38.2625 108.948 38.3087 113.951 34.5758 114.049C30.0883 114.166 27.0834 109.276 26.0847 107.363L30.7152 105.562L38.5661 105.963Z" fill="#FAB08D"/>
<path d="M54.4286 148.588C48.6652 145.352 36.351 138.131 36.351 138.131C36.351 138.131 29.4724 129.524 21.5665 109.123C21.5665 109.123 17.5629 112.724 19.9013 123.599C22.2396 134.472 32.2177 144.524 32.2177 144.524C32.2177 144.524 45.6868 151.269 51.6591 151.716L54.4286 148.588Z" fill="#1A598C"/>
<path d="M79.288 151.428L37.8051 155.61C37.5697 155.634 37.3585 155.459 37.3343 155.222L37.099 152.858C37.0748 152.621 37.2463 152.408 37.4839 152.383L78.9669 148.202C79.2022 148.178 79.4134 148.351 79.4376 148.59L79.673 150.954C79.695 151.194 79.5234 151.404 79.288 151.428Z" fill="white"/>
<path d="M79.7147 151.495L45.0774 154.87L53.7158 134.88L88.3509 131.505L79.7147 151.495Z" fill="url(#paint29_linear_71_113)"/>
<path d="M77.5611 151.705L77.5589 151.712L42.9216 155.087L51.5579 135.097L53.7136 134.887L45.0774 154.87L77.5611 151.705Z" fill="white"/>
<path d="M69.3583 142.922C69.4793 144.149 68.5906 145.244 67.3719 145.366C66.1533 145.488 65.0666 144.592 64.9456 143.365C64.8246 142.137 65.7133 141.043 66.9298 140.921C68.1484 140.799 69.2351 141.694 69.3583 142.922Z" fill="#A0A0A0"/>
</g>
<defs>
<linearGradient id="paint0_linear_71_113" x1="193.337" y1="101.718" x2="215.782" y2="101.718" gradientUnits="userSpaceOnUse">
<stop stop-color="#D5E4FF"/>
<stop offset="1" stop-color="#EDFFFE"/>
</linearGradient>
<linearGradient id="paint1_linear_71_113" x1="192.187" y1="94.2097" x2="219.371" y2="94.2097" gradientUnits="userSpaceOnUse">
<stop stop-color="#D5E4FF"/>
<stop offset="1" stop-color="#EDFFFE"/>
</linearGradient>
<linearGradient id="paint2_linear_71_113" x1="174.243" y1="6.28313" x2="172.96" y2="126.796" gradientUnits="userSpaceOnUse">
<stop stop-color="#19456C"/>
<stop offset="0.2486" stop-color="#183F63"/>
<stop offset="0.6605" stop-color="#162E49"/>
<stop offset="0.9944" stop-color="#131E30"/>
</linearGradient>
<linearGradient id="paint3_linear_71_113" x1="173.575" y1="18.5245" x2="173.575" y2="-0.151687" gradientUnits="userSpaceOnUse">
<stop stop-color="#D2D2D2"/>
<stop offset="0.3082" stop-color="#DBDBDB"/>
<stop offset="0.8191" stop-color="#F5F5F5"/>
<stop offset="0.9944" stop-color="white"/>
</linearGradient>
<linearGradient id="paint4_linear_71_113" x1="176.824" y1="56.9764" x2="169.985" y2="155.841" gradientUnits="userSpaceOnUse">
<stop stop-color="#19456C"/>
<stop offset="0.2486" stop-color="#183F63"/>
<stop offset="0.6605" stop-color="#162E49"/>
<stop offset="0.9944" stop-color="#131E30"/>
</linearGradient>
<linearGradient id="paint5_linear_71_113" x1="173.538" y1="250.64" x2="173.538" y2="113.572" gradientUnits="userSpaceOnUse">
<stop stop-color="#D2D2D2"/>
<stop offset="0.3082" stop-color="#DBDBDB"/>
<stop offset="0.8191" stop-color="#F5F5F5"/>
<stop offset="0.9944" stop-color="white"/>
</linearGradient>
<linearGradient id="paint6_linear_71_113" x1="173.575" y1="161.756" x2="173.575" y2="137.868" gradientUnits="userSpaceOnUse">
<stop stop-color="#D2D2D2"/>
<stop offset="0.3082" stop-color="#DBDBDB"/>
<stop offset="0.8191" stop-color="#F5F5F5"/>
<stop offset="0.9944" stop-color="white"/>
</linearGradient>
<linearGradient id="paint7_linear_71_113" x1="173.54" y1="92.6976" x2="173.54" y2="-15.8222" gradientUnits="userSpaceOnUse">
<stop stop-color="#19456C"/>
<stop offset="0.2486" stop-color="#183F63"/>
<stop offset="0.6605" stop-color="#162E49"/>
<stop offset="0.9944" stop-color="#131E30"/>
</linearGradient>
<linearGradient id="paint8_linear_71_113" x1="173.575" y1="127.334" x2="173.575" y2="188.789" gradientUnits="userSpaceOnUse">
<stop stop-color="#D2D2D2"/>
<stop offset="0.3082" stop-color="#DBDBDB"/>
<stop offset="0.8191" stop-color="#F5F5F5"/>
<stop offset="0.9944" stop-color="white"/>
</linearGradient>
<linearGradient id="paint9_linear_71_113" x1="173.228" y1="170.034" x2="170.663" y2="241.001" gradientUnits="userSpaceOnUse">
<stop stop-color="#D2D2D2"/>
<stop offset="0.3082" stop-color="#DBDBDB"/>
<stop offset="0.8191" stop-color="#F5F5F5"/>
<stop offset="0.9944" stop-color="white"/>
</linearGradient>
<linearGradient id="paint10_linear_71_113" x1="173.575" y1="201.204" x2="173.575" y2="181.655" gradientUnits="userSpaceOnUse">
<stop stop-color="#D2D2D2"/>
<stop offset="0.3082" stop-color="#DBDBDB"/>
<stop offset="0.8191" stop-color="#F5F5F5"/>
<stop offset="0.9944" stop-color="white"/>
</linearGradient>
<linearGradient id="paint11_linear_71_113" x1="173.537" y1="-4.8882" x2="173.537" y2="90.832" gradientUnits="userSpaceOnUse">
<stop stop-color="#19456C"/>
<stop offset="0.2486" stop-color="#183F63"/>
<stop offset="0.6605" stop-color="#162E49"/>
<stop offset="0.9944" stop-color="#131E30"/>
</linearGradient>
<linearGradient id="paint12_linear_71_113" x1="173.862" y1="102.09" x2="171.82" y2="51.0816" gradientUnits="userSpaceOnUse">
<stop stop-color="#19456C"/>
<stop offset="0.2486" stop-color="#183F63"/>
<stop offset="0.6605" stop-color="#162E49"/>
<stop offset="0.9944" stop-color="#131E30"/>
</linearGradient>
<linearGradient id="paint13_linear_71_113" x1="172.491" y1="45.1833" x2="174.674" y2="87.2888" gradientUnits="userSpaceOnUse">
<stop stop-color="#19456C"/>
<stop offset="0.2486" stop-color="#183F63"/>
<stop offset="0.6605" stop-color="#162E49"/>
<stop offset="0.9944" stop-color="#131E30"/>
</linearGradient>
<linearGradient id="paint14_linear_71_113" x1="172.366" y1="38.5741" x2="173.16" y2="50.2848" gradientUnits="userSpaceOnUse">
<stop stop-color="#19456C"/>
<stop offset="0.2486" stop-color="#183F63"/>
<stop offset="0.6605" stop-color="#162E49"/>
<stop offset="0.9944" stop-color="#131E30"/>
</linearGradient>
<linearGradient id="paint15_linear_71_113" x1="258.326" y1="203.315" x2="265.204" y2="107.44" gradientUnits="userSpaceOnUse">
<stop stop-color="#19456C"/>
<stop offset="0.2486" stop-color="#183F63"/>
<stop offset="0.6605" stop-color="#162E49"/>
<stop offset="0.9944" stop-color="#131E30"/>
</linearGradient>
<linearGradient id="paint16_linear_71_113" x1="251.165" y1="202.802" x2="258.042" y2="106.931" gradientUnits="userSpaceOnUse">
<stop stop-color="#19456C"/>
<stop offset="0.2486" stop-color="#183F63"/>
<stop offset="0.6605" stop-color="#162E49"/>
<stop offset="0.9944" stop-color="#131E30"/>
</linearGradient>
<linearGradient id="paint17_linear_71_113" x1="272.938" y1="127.077" x2="252.053" y2="220.867" gradientUnits="userSpaceOnUse">
<stop stop-color="#19456C"/>
<stop offset="0.2486" stop-color="#183F63"/>
<stop offset="0.6605" stop-color="#162E49"/>
<stop offset="0.9944" stop-color="#131E30"/>
</linearGradient>
<linearGradient id="paint18_linear_71_113" x1="279.947" y1="128.639" x2="259.062" y2="222.427" gradientUnits="userSpaceOnUse">
<stop stop-color="#19456C"/>
<stop offset="0.2486" stop-color="#183F63"/>
<stop offset="0.6605" stop-color="#162E49"/>
<stop offset="0.9944" stop-color="#131E30"/>
</linearGradient>
<linearGradient id="paint19_linear_71_113" x1="289.947" y1="130.711" x2="255.927" y2="220.516" gradientUnits="userSpaceOnUse">
<stop stop-color="#19456C"/>
<stop offset="0.2486" stop-color="#183F63"/>
<stop offset="0.6605" stop-color="#162E49"/>
<stop offset="0.9944" stop-color="#131E30"/>
</linearGradient>
<linearGradient id="paint20_linear_71_113" x1="296.665" y1="133.255" x2="262.646" y2="223.06" gradientUnits="userSpaceOnUse">
<stop stop-color="#19456C"/>
<stop offset="0.2486" stop-color="#183F63"/>
<stop offset="0.6605" stop-color="#162E49"/>
<stop offset="0.9944" stop-color="#131E30"/>
</linearGradient>
<linearGradient id="paint21_linear_71_113" x1="313.367" y1="277.07" x2="292.346" y2="110.704" gradientUnits="userSpaceOnUse">
<stop stop-color="#19456C"/>
<stop offset="0.2486" stop-color="#183F63"/>
<stop offset="0.6605" stop-color="#162E49"/>
<stop offset="0.9944" stop-color="#131E30"/>
</linearGradient>
<linearGradient id="paint22_linear_71_113" x1="309.952" y1="117.193" x2="332.915" y2="269.037" gradientUnits="userSpaceOnUse">
<stop stop-color="#19456C"/>
<stop offset="0.2486" stop-color="#183F63"/>
<stop offset="0.6605" stop-color="#162E49"/>
<stop offset="0.9944" stop-color="#131E30"/>
</linearGradient>
<linearGradient id="paint23_linear_71_113" x1="278.068" y1="115.284" x2="265.916" y2="78.8421" gradientUnits="userSpaceOnUse">
<stop stop-color="#D2D2D2"/>
<stop offset="0.3082" stop-color="#DBDBDB"/>
<stop offset="0.8191" stop-color="#F5F5F5"/>
<stop offset="0.9944" stop-color="white"/>
</linearGradient>
<linearGradient id="paint24_linear_71_113" x1="273.815" y1="226.798" x2="276.659" y2="203.76" gradientUnits="userSpaceOnUse">
<stop stop-color="#D2D2D2"/>
<stop offset="0.3082" stop-color="#DBDBDB"/>
<stop offset="0.8191" stop-color="#F5F5F5"/>
<stop offset="0.9944" stop-color="white"/>
</linearGradient>
<linearGradient id="paint25_linear_71_113" x1="265.855" y1="225.815" x2="268.699" y2="202.777" gradientUnits="userSpaceOnUse">
<stop stop-color="#D2D2D2"/>
<stop offset="0.3082" stop-color="#DBDBDB"/>
<stop offset="0.8191" stop-color="#F5F5F5"/>
<stop offset="0.9944" stop-color="white"/>
</linearGradient>
<linearGradient id="paint26_linear_71_113" x1="170.613" y1="241.227" x2="170.613" y2="198.182" gradientUnits="userSpaceOnUse">
<stop stop-color="#D2D2D2"/>
<stop offset="0.3082" stop-color="#DBDBDB"/>
<stop offset="0.8191" stop-color="#F5F5F5"/>
<stop offset="0.9944" stop-color="white"/>
</linearGradient>
<linearGradient id="paint27_linear_71_113" x1="323.492" y1="105.072" x2="43.9866" y2="165.293" gradientUnits="userSpaceOnUse">
<stop stop-color="#19456C"/>
<stop offset="0.2486" stop-color="#183F63"/>
<stop offset="0.6605" stop-color="#162E49"/>
<stop offset="0.9944" stop-color="#131E30"/>
</linearGradient>
<linearGradient id="paint28_linear_71_113" x1="80.8952" y1="165.278" x2="-7.15668" y2="164.993" gradientUnits="userSpaceOnUse">
<stop stop-color="#19456C"/>
<stop offset="0.2486" stop-color="#183F63"/>
<stop offset="0.6605" stop-color="#162E49"/>
<stop offset="0.9944" stop-color="#131E30"/>
</linearGradient>
<linearGradient id="paint29_linear_71_113" x1="67.3583" y1="153.387" x2="64.5063" y2="108.841" gradientUnits="userSpaceOnUse">
<stop stop-color="#D2D2D2"/>
<stop offset="0.3082" stop-color="#DBDBDB"/>
<stop offset="0.8191" stop-color="#F5F5F5"/>
<stop offset="0.9944" stop-color="white"/>
</linearGradient>
<clipPath id="clip0_71_113">
<rect width="342" height="252" fill="white"/>
</clipPath>
</defs>
</svg>
