<svg width="58" height="60" viewBox="0 0 58 60" fill="none" xmlns="http://www.w3.org/2000/svg">
<path opacity="0.8" d="M29 60.0001C45.0163 60.0001 58 47.0765 58 31.1346C58 15.1926 45.0163 2.26904 29 2.26904C12.9837 2.26904 0 15.1926 0 31.1346C0 47.0765 12.9837 60.0001 29 60.0001Z" fill="url(#paint0_radial_71_67)"/>
<path d="M41.6522 19.6286C41.6522 8.79391 32.8173 0 21.9322 0C11.0336 0 2.21216 8.79391 2.21216 19.6286C2.21216 29.4294 9.42844 37.552 18.8568 39.0154V25.3077H13.8526V19.6286H18.8568V15.3054C18.8568 10.3916 21.7973 7.66614 26.3024 7.66614C28.4605 7.66614 30.7131 8.05549 30.7131 8.05549V12.8888H28.2312C25.7763 12.8888 25.021 14.4059 25.021 15.9499V19.6286H30.4973L29.6205 25.3077H25.021V39.0289C34.4359 37.552 41.6522 29.4294 41.6522 19.6286Z" fill="black"/>
<path d="M29.607 25.3075L30.4838 19.6284H25.0075V15.9497C25.0075 14.3924 25.7763 12.8887 28.2177 12.8887H30.6996V8.05536C30.6996 8.05536 28.447 7.66602 26.2889 7.66602C21.7838 7.66602 18.8433 10.378 18.8433 15.3053V19.6284H13.8391V25.3075H18.8433V39.0287C19.8414 39.1898 20.88 39.2704 21.9186 39.2704C22.9707 39.2704 23.9959 39.1898 24.994 39.0287V25.3075H29.607Z" fill="white"/>
<defs>
<radialGradient id="paint0_radial_71_67" cx="0" cy="0" r="1" gradientUnits="userSpaceOnUse" gradientTransform="translate(29 31.13) scale(29 28.8655)">
<stop stop-color="#000056"/>
<stop offset="0.2482" stop-color="#4C4C88" stop-opacity="0.7518"/>
<stop offset="0.5193" stop-color="#9898BB" stop-opacity="0.4807"/>
<stop offset="0.744" stop-color="#D0D0E0" stop-opacity="0.256"/>
<stop offset="0.9103" stop-color="#F2F2F6" stop-opacity="0.0897"/>
<stop offset="1" stop-color="white" stop-opacity="0"/>
</radialGradient>
</defs>
</svg>
